<?xml version="1.0" encoding="utf-8"?>
<!-- Generator: Adobe Illustrator 19.1.0, SVG Export Plug-In . SVG Version: 6.00 Build 0)  -->
<svg version="1.1" xmlns="http://www.w3.org/2000/svg" xmlns:xlink="http://www.w3.org/1999/xlink" x="0px" y="0px"
	 viewBox="0 0 429 120" style="enable-background:new 0 0 429 120;" xml:space="preserve">
<style type="text/css">
	.st0{display:none;}
	.st1{display:inline;}
	.st2{fill:#010101;}
	.st3{opacity:0.6;fill:#D1D3D4;}
	.st4{opacity:0.8;fill:#D1D3D4;}
	.st5{opacity:0.4;fill:#D1D3D4;}
	.st6{display:inline;fill:#00AEEF;}
	.st7{fill:#FFFFFF;}
	.st8{opacity:0.75;fill:#FFFFFF;}
	.st9{opacity:0.9;fill:#FFFFFF;}
	.st10{opacity:0.6;fill:#FFFFFF;}
</style>
<g id="Layer_1" class="st0">
	<g class="st1">
		<path class="st2" d="M239.3,27.1c3.4,0,6.1,1,8.2,3.1c2.1,2.1,3.1,4.8,3.1,8.1V42c0,3.3-1,6-3.1,8.1c-2.1,2.1-4.8,3.1-8.2,3.1
			h-10.9V51l2.9-0.5V29.9l-2.9-0.5v-2.3h2.9H239.3z M234.8,29.9v20.6h4.5c2.4,0,4.3-0.8,5.7-2.4c1.4-1.6,2.1-3.6,2.1-6.1v-3.6
			c0-2.5-0.7-4.5-2.1-6.1c-1.4-1.6-3.3-2.4-5.7-2.4H234.8z"/>
		<path class="st2" d="M254.2,51l2.9-0.5V36.6l-2.9-0.5v-2.3h6.5v16.6l2.9,0.5v2.3h-9.4V51z M260.7,28.9h-3.5v-3.6h3.5V28.9z"/>
		<path class="st2" d="M266.3,43.9c0-3.1,0.7-5.6,2-7.6c1.4-1.9,3.2-2.9,5.7-2.9c1.2,0,2.3,0.2,3.2,0.7c0.9,0.5,1.7,1.2,2.3,2.1
			l0.3-2.4h3V53c0,2.5-0.7,4.5-2.1,5.9c-1.4,1.4-3.4,2.2-6,2.2c-0.9,0-1.9-0.1-3-0.4c-1.1-0.3-2-0.6-2.9-1l0.9-2.7
			c0.7,0.3,1.4,0.6,2.3,0.9c0.9,0.2,1.8,0.3,2.6,0.3c1.6,0,2.7-0.4,3.5-1.3c0.7-0.9,1.1-2.1,1.1-3.8v-1.8c-0.6,0.8-1.4,1.4-2.3,1.8
			c-0.9,0.4-1.9,0.6-3,0.6c-2.4,0-4.3-0.9-5.6-2.6c-1.4-1.7-2-4-2-6.8V43.9z M269.8,44.3c0,1.9,0.4,3.5,1.2,4.7
			c0.8,1.2,2.1,1.8,3.8,1.8c1.1,0,2-0.2,2.7-0.7c0.7-0.5,1.3-1.2,1.8-2.1v-8.9c-0.5-0.8-1-1.5-1.8-2c-0.7-0.5-1.6-0.7-2.6-0.7
			c-1.7,0-2.9,0.7-3.8,2.1s-1.3,3.2-1.3,5.4V44.3z"/>
		<path class="st2" d="M287,51l2.9-0.5V36.6l-2.9-0.5v-2.3h6.5v16.6l2.9,0.5v2.3H287V51z M293.5,28.9H290v-3.6h3.5V28.9z"/>
		<path class="st2" d="M305.2,29.2v4.7h3.7v2.6h-3.7v11.8c0,0.9,0.2,1.5,0.6,1.9c0.4,0.4,0.9,0.6,1.5,0.6c0.3,0,0.7,0,1-0.1
			c0.4-0.1,0.7-0.1,1-0.2l0.5,2.4c-0.3,0.2-0.8,0.4-1.5,0.5c-0.6,0.1-1.3,0.2-1.9,0.2c-1.4,0-2.6-0.4-3.4-1.3
			c-0.8-0.9-1.3-2.2-1.3-4.1V36.5h-3.1v-2.6h3.1v-4.7H305.2z"/>
		<path class="st2" d="M325.3,53.3c-0.1-0.5-0.2-1-0.3-1.4c-0.1-0.4-0.1-0.8-0.1-1.3c-0.7,0.9-1.5,1.6-2.6,2.2
			c-1,0.6-2.1,0.9-3.3,0.9c-2,0-3.6-0.5-4.6-1.5c-1.1-1-1.6-2.4-1.6-4.2c0-1.8,0.7-3.3,2.2-4.3s3.5-1.5,6.1-1.5h3.6V40
			c0-1.1-0.4-2-1.1-2.7s-1.7-1-3-1c-0.9,0-1.7,0.1-2.3,0.3c-0.7,0.2-1.2,0.5-1.6,0.9l-0.4,2h-2.7v-3.8c0.9-0.7,2-1.3,3.2-1.7
			c1.3-0.4,2.6-0.6,4.1-0.6c2.2,0,4,0.6,5.3,1.7c1.4,1.1,2,2.7,2,4.8v9.3c0,0.3,0,0.5,0,0.7c0,0.2,0,0.5,0,0.7l1.4,0.2v2.3H325.3z
			 M319.6,50.7c1.2,0,2.2-0.3,3.2-0.8c1-0.6,1.7-1.2,2.1-2v-3.2h-3.8c-1.4,0-2.6,0.3-3.4,1c-0.8,0.7-1.3,1.5-1.3,2.4
			c0,0.8,0.3,1.5,0.8,1.9C317.7,50.5,318.5,50.7,319.6,50.7z"/>
		<path class="st2" d="M332.5,27.6v-2.3h6.5v25.2l2.9,0.5v2.3h-9.4V51l2.9-0.5V28.1L332.5,27.6z"/>
	</g>
	<g class="st1">
		<path class="st2" d="M247.3,78.8h-2.7l-0.7-3.7c-0.5-0.5-1.3-0.8-2.2-1.1s-1.9-0.4-3.1-0.4c-1.9,0-3.3,0.4-4.3,1.2
			s-1.5,1.8-1.5,3.1c0,1.1,0.5,2.1,1.5,2.8s2.7,1.4,5,2c2.8,0.7,4.8,1.7,6.3,3c1.4,1.3,2.1,3,2.1,4.9c0,2.1-0.9,3.8-2.6,5.1
			c-1.7,1.3-4,1.9-6.7,1.9c-2,0-3.8-0.3-5.4-1s-2.8-1.5-3.8-2.6v-4.9h2.7l0.7,3.7c0.7,0.6,1.5,1,2.4,1.4c0.9,0.4,2.1,0.5,3.4,0.5
			c1.8,0,3.2-0.4,4.2-1.1c1-0.8,1.6-1.8,1.6-3.1c0-1.2-0.4-2.2-1.3-3c-0.9-0.8-2.5-1.5-4.8-2c-2.8-0.7-4.9-1.6-6.5-2.9
			c-1.6-1.3-2.3-2.9-2.3-4.8c0-2,0.9-3.7,2.6-5.1c1.7-1.4,4-2,6.8-2c1.8,0,3.5,0.3,5,0.9s2.7,1.4,3.6,2.3V78.8z"/>
		<path class="st2" d="M257.2,73.1v4.7h3.7v2.6h-3.7v11.8c0,0.9,0.2,1.5,0.6,1.9c0.4,0.4,0.9,0.6,1.5,0.6c0.3,0,0.7,0,1-0.1
			c0.4-0.1,0.7-0.1,1-0.2l0.5,2.4c-0.3,0.2-0.8,0.4-1.5,0.5c-0.6,0.1-1.3,0.2-1.9,0.2c-1.4,0-2.6-0.4-3.4-1.3
			c-0.8-0.9-1.3-2.2-1.3-4.1V80.4h-3.1v-2.6h3.1v-4.7H257.2z"/>
		<path class="st2" d="M264.6,80.1v-2.3h6.1l0.3,2.8c0.5-1,1.2-1.8,2-2.3c0.8-0.6,1.7-0.8,2.8-0.8c0.3,0,0.6,0,0.9,0.1
			c0.3,0,0.5,0.1,0.7,0.1l-0.5,3.3l-2-0.1c-0.9,0-1.7,0.2-2.3,0.7c-0.6,0.4-1.1,1-1.5,1.8v11.1l2.9,0.5v2.3h-9.4v-2.3l2.9-0.5V80.6
			L264.6,80.1z"/>
		<path class="st2" d="M293.7,94.3c-0.6,1-1.4,1.8-2.4,2.4c-1,0.6-2.1,0.8-3.3,0.8c-2.1,0-3.7-0.7-4.9-2c-1.2-1.4-1.8-3.5-1.8-6.3
			v-8.7l-2.2-0.5v-2.3h2.2h3.5v11.5c0,2.1,0.3,3.5,0.9,4.3c0.6,0.8,1.6,1.2,2.9,1.2c1.3,0,2.3-0.3,3.1-0.8s1.4-1.2,1.9-2.2V80.6
			l-2.6-0.5v-2.3h2.6h3.5v16.6l2.2,0.5v2.3H294L293.7,94.3z"/>
		<path class="st2" d="M310.9,94.8c1.2,0,2.2-0.4,3.1-1.1c0.9-0.7,1.3-1.6,1.3-2.7h3.2l0,0.1c0.1,1.7-0.7,3.2-2.2,4.5
			c-1.5,1.3-3.4,1.9-5.4,1.9c-2.8,0-5-0.9-6.5-2.8c-1.5-1.8-2.2-4.2-2.2-6.9v-0.8c0-2.8,0.7-5.1,2.2-6.9c1.5-1.8,3.6-2.8,6.5-2.8
			c1.6,0,3,0.3,4.2,0.8c1.2,0.5,2.3,1.2,3.1,2.1l0.2,4.3h-2.8l-0.8-3c-0.4-0.4-1-0.7-1.6-1c-0.7-0.3-1.4-0.4-2.2-0.4
			c-1.9,0-3.2,0.7-4,2c-0.8,1.3-1.2,3-1.2,4.9v0.8c0,2,0.4,3.6,1.2,5C307.7,94.2,309,94.8,310.9,94.8z"/>
		<path class="st2" d="M328.3,73.1v4.7h3.7v2.6h-3.7v11.8c0,0.9,0.2,1.5,0.6,1.9c0.4,0.4,0.9,0.6,1.5,0.6c0.3,0,0.7,0,1-0.1
			c0.4-0.1,0.7-0.1,1-0.2l0.5,2.4c-0.3,0.2-0.8,0.4-1.5,0.5c-0.6,0.1-1.3,0.2-1.9,0.2c-1.4,0-2.6-0.4-3.4-1.3
			c-0.8-0.9-1.3-2.2-1.3-4.1V80.4h-3.1v-2.6h3.1v-4.7H328.3z"/>
		<path class="st2" d="M349.6,94.3c-0.6,1-1.4,1.8-2.4,2.4c-1,0.6-2.1,0.8-3.3,0.8c-2.1,0-3.7-0.7-4.9-2c-1.2-1.4-1.8-3.5-1.8-6.3
			v-8.7l-2.2-0.5v-2.3h2.2h3.5v11.5c0,2.1,0.3,3.5,0.9,4.3c0.6,0.8,1.6,1.2,2.9,1.2c1.3,0,2.3-0.3,3.1-0.8s1.4-1.2,1.9-2.2V80.6
			l-2.6-0.5v-2.3h2.6h3.5v16.6l2.2,0.5v2.3h-5.4L349.6,94.3z"/>
		<path class="st2" d="M357.7,80.1v-2.3h6.1l0.3,2.8c0.5-1,1.2-1.8,2-2.3c0.8-0.6,1.7-0.8,2.8-0.8c0.3,0,0.6,0,0.9,0.1
			c0.3,0,0.5,0.1,0.7,0.1l-0.5,3.3l-2-0.1c-0.9,0-1.7,0.2-2.3,0.7c-0.6,0.4-1.1,1-1.5,1.8v11.1l2.9,0.5v2.3h-9.4v-2.3l2.9-0.5V80.6
			L357.7,80.1z"/>
		<path class="st2" d="M381.3,97.6c-2.7,0-4.9-0.9-6.4-2.7c-1.6-1.8-2.4-4.1-2.4-7v-0.8c0-2.8,0.8-5.1,2.5-6.9
			c1.6-1.8,3.6-2.8,5.8-2.8c2.6,0,4.6,0.8,5.9,2.4c1.3,1.6,2,3.7,2,6.3v2.2h-12.6l-0.1,0.1c0,1.9,0.5,3.4,1.4,4.6
			c0.9,1.2,2.2,1.8,3.8,1.8c1.2,0,2.2-0.2,3.1-0.5c0.9-0.3,1.7-0.8,2.3-1.4l1.4,2.3c-0.7,0.7-1.6,1.2-2.8,1.7
			C384.3,97.3,382.9,97.6,381.3,97.6z M380.8,80.2c-1.2,0-2.2,0.5-3,1.5s-1.4,2.3-1.5,3.8l0,0.1h9v-0.5c0-1.4-0.4-2.5-1.1-3.5
			C383.4,80.7,382.3,80.2,380.8,80.2z"/>
		<path class="st2" d="M406.9,83.9h-2.7l-0.6-2.3c-0.4-0.4-1-0.7-1.6-1c-0.7-0.2-1.4-0.4-2.2-0.4c-1.3,0-2.2,0.3-2.8,0.8
			c-0.6,0.6-0.9,1.2-0.9,2c0,0.8,0.3,1.4,0.8,1.8c0.5,0.4,1.6,0.8,3.3,1.2c2.5,0.5,4.3,1.2,5.5,2.1c1.2,0.9,1.8,2.1,1.8,3.6
			c0,1.7-0.7,3.1-2.1,4.2c-1.4,1.1-3.2,1.6-5.5,1.6c-1.5,0-2.8-0.2-4-0.5c-1.2-0.3-2.2-0.8-3.1-1.5l0-4.4h2.7l0.7,2.6
			c0.4,0.4,1,0.6,1.7,0.8s1.4,0.3,2.1,0.3c1.3,0,2.2-0.3,3-0.8c0.7-0.5,1.1-1.2,1.1-2c0-0.8-0.3-1.4-0.9-1.9
			c-0.6-0.5-1.7-0.9-3.4-1.3c-2.4-0.5-4.1-1.2-5.3-2.1c-1.2-0.9-1.8-2.1-1.8-3.6c0-1.6,0.7-2.9,2-4c1.3-1.1,3.1-1.7,5.2-1.7
			c1.5,0,2.8,0.2,4,0.6c1.2,0.4,2.1,0.9,2.9,1.6L406.9,83.9z"/>
	</g>
	<g class="st1">
		<polygon class="st3" points="28.3,112.7 47.4,79.7 9.2,79.7 		"/>
		<polygon class="st4" points="176.4,7.6 157.3,40.6 195.5,40.6 		"/>
		<polygon class="st3" points="134.1,7.6 115,40.6 153.2,40.6 		"/>
		<polygon class="st5" points="155.3,39.4 174.3,6.4 136.2,6.4 		"/>
		<polygon class="st5" points="134.1,76.1 153.2,43 115,43 		"/>
		<polygon class="st3" points="155.3,44.2 136.2,77.3 174.3,77.3 		"/>
		<polygon class="st5" points="134.1,80.9 115,113.9 153.2,113.9 		"/>
		<polygon class="st4" points="155.3,112.7 174.3,79.7 136.2,79.7 		"/>
		<polygon class="st3" points="112.9,112.7 132,79.7 93.8,79.7 		"/>
		<polygon class="st5" points="91.8,7.6 72.7,40.6 110.9,40.6 		"/>
		<polygon class="st4" points="91.8,76.1 110.9,43 72.7,43 		"/>
		<polygon class="st3" points="70.6,44.2 51.5,77.3 89.7,77.3 		"/>
		<polygon class="st4" points="28.3,44.2 9.2,77.3 47.4,77.3 		"/>
		<polygon class="st5" points="49.5,80.9 30.4,113.9 68.6,113.9 		"/>
		<polygon class="st5" points="49.5,76.1 68.6,43 30.4,43 		"/>
		<polygon class="st4" points="70.6,112.7 89.7,79.7 51.5,79.7 		"/>
	</g>
</g>
<g id="Layer_3" class="st0">
	<rect x="-18" y="-11" class="st6" width="478.7" height="140.7"/>
</g>
<g id="Layer_2">
	<g>
		<path class="st7" d="M239.3,27.1c3.4,0,6.1,1,8.2,3.1c2.1,2.1,3.1,4.8,3.1,8.1V42c0,3.3-1,6-3.1,8.1c-2.1,2.1-4.8,3.1-8.2,3.1
			h-10.9V51l2.9-0.5V29.9l-2.9-0.5v-2.3h2.9H239.3z M234.8,29.9v20.6h4.5c2.4,0,4.3-0.8,5.7-2.4c1.4-1.6,2.1-3.6,2.1-6.1v-3.6
			c0-2.5-0.7-4.5-2.1-6.1c-1.4-1.6-3.3-2.4-5.7-2.4H234.8z"/>
		<path class="st7" d="M254.2,51l2.9-0.5V36.6l-2.9-0.5v-2.3h6.5v16.6l2.9,0.5v2.3h-9.4V51z M260.7,28.9h-3.5v-3.6h3.5V28.9z"/>
		<path class="st7" d="M266.3,43.9c0-3.1,0.7-5.6,2-7.6c1.4-1.9,3.2-2.9,5.7-2.9c1.2,0,2.3,0.2,3.2,0.7c0.9,0.5,1.7,1.2,2.3,2.1
			l0.3-2.4h3V53c0,2.5-0.7,4.5-2.1,5.9c-1.4,1.4-3.4,2.2-6,2.2c-0.9,0-1.9-0.1-3-0.4c-1.1-0.3-2-0.6-2.9-1l0.9-2.7
			c0.7,0.3,1.4,0.6,2.3,0.9c0.9,0.2,1.8,0.3,2.6,0.3c1.6,0,2.7-0.4,3.5-1.3c0.7-0.9,1.1-2.1,1.1-3.8v-1.8c-0.6,0.8-1.4,1.4-2.3,1.8
			c-0.9,0.4-1.9,0.6-3,0.6c-2.4,0-4.3-0.9-5.6-2.6c-1.4-1.7-2-4-2-6.8V43.9z M269.8,44.3c0,1.9,0.4,3.5,1.2,4.7
			c0.8,1.2,2.1,1.8,3.8,1.8c1.1,0,2-0.2,2.7-0.7c0.7-0.5,1.3-1.2,1.8-2.1v-8.9c-0.5-0.8-1-1.5-1.8-2c-0.7-0.5-1.6-0.7-2.6-0.7
			c-1.7,0-2.9,0.7-3.8,2.1s-1.3,3.2-1.3,5.4V44.3z"/>
		<path class="st7" d="M287,51l2.9-0.5V36.6l-2.9-0.5v-2.3h6.5v16.6l2.9,0.5v2.3H287V51z M293.5,28.9H290v-3.6h3.5V28.9z"/>
		<path class="st7" d="M305.2,29.2v4.7h3.7v2.6h-3.7v11.8c0,0.9,0.2,1.5,0.6,1.9c0.4,0.4,0.9,0.6,1.5,0.6c0.3,0,0.7,0,1-0.1
			c0.4-0.1,0.7-0.1,1-0.2l0.5,2.4c-0.3,0.2-0.8,0.4-1.5,0.5c-0.6,0.1-1.3,0.2-1.9,0.2c-1.4,0-2.6-0.4-3.4-1.3
			c-0.8-0.9-1.3-2.2-1.3-4.1V36.5h-3.1v-2.6h3.1v-4.7H305.2z"/>
		<path class="st7" d="M325.3,53.3c-0.1-0.5-0.2-1-0.3-1.4c-0.1-0.4-0.1-0.8-0.1-1.3c-0.7,0.9-1.5,1.6-2.6,2.2
			c-1,0.6-2.1,0.9-3.3,0.9c-2,0-3.6-0.5-4.6-1.5c-1.1-1-1.6-2.4-1.6-4.2c0-1.8,0.7-3.3,2.2-4.3s3.5-1.5,6.1-1.5h3.6V40
			c0-1.1-0.4-2-1.1-2.7s-1.7-1-3-1c-0.9,0-1.7,0.1-2.3,0.3c-0.7,0.2-1.2,0.5-1.6,0.9l-0.4,2h-2.7v-3.8c0.9-0.7,2-1.3,3.2-1.7
			c1.3-0.4,2.6-0.6,4.1-0.6c2.2,0,4,0.6,5.3,1.7c1.4,1.1,2,2.7,2,4.8v9.3c0,0.3,0,0.5,0,0.7c0,0.2,0,0.5,0,0.7l1.4,0.2v2.3H325.3z
			 M319.6,50.7c1.2,0,2.2-0.3,3.2-0.8c1-0.6,1.7-1.2,2.1-2v-3.2h-3.8c-1.4,0-2.6,0.3-3.4,1c-0.8,0.7-1.3,1.5-1.3,2.4
			c0,0.8,0.3,1.5,0.8,1.9C317.7,50.5,318.5,50.7,319.6,50.7z"/>
		<path class="st7" d="M332.5,27.6v-2.3h6.5v25.2l2.9,0.5v2.3h-9.4V51l2.9-0.5V28.1L332.5,27.6z"/>
	</g>
	<g>
		<path class="st7" d="M247.3,78.8h-2.7l-0.7-3.7c-0.5-0.5-1.3-0.8-2.2-1.1s-1.9-0.4-3.1-0.4c-1.9,0-3.3,0.4-4.3,1.2
			s-1.5,1.8-1.5,3.1c0,1.1,0.5,2.1,1.5,2.8s2.7,1.4,5,2c2.8,0.7,4.8,1.7,6.3,3c1.4,1.3,2.1,3,2.1,4.9c0,2.1-0.9,3.8-2.6,5.1
			c-1.7,1.3-4,1.9-6.7,1.9c-2,0-3.8-0.3-5.4-1s-2.8-1.5-3.8-2.6v-4.9h2.7l0.7,3.7c0.7,0.6,1.5,1,2.4,1.4c0.9,0.4,2.1,0.5,3.4,0.5
			c1.8,0,3.2-0.4,4.2-1.1c1-0.8,1.6-1.8,1.6-3.1c0-1.2-0.4-2.2-1.3-3c-0.9-0.8-2.5-1.5-4.8-2c-2.8-0.7-4.9-1.6-6.5-2.9
			c-1.6-1.3-2.3-2.9-2.3-4.8c0-2,0.9-3.7,2.6-5.1c1.7-1.4,4-2,6.8-2c1.8,0,3.5,0.3,5,0.9s2.7,1.4,3.6,2.3V78.8z"/>
		<path class="st7" d="M257.2,73.1v4.7h3.7v2.6h-3.7v11.8c0,0.9,0.2,1.5,0.6,1.9c0.4,0.4,0.9,0.6,1.5,0.6c0.3,0,0.7,0,1-0.1
			c0.4-0.1,0.7-0.1,1-0.2l0.5,2.4c-0.3,0.2-0.8,0.4-1.5,0.5c-0.6,0.1-1.3,0.2-1.9,0.2c-1.4,0-2.6-0.4-3.4-1.3
			c-0.8-0.9-1.3-2.2-1.3-4.1V80.4h-3.1v-2.6h3.1v-4.7H257.2z"/>
		<path class="st7" d="M264.6,80.1v-2.3h6.1l0.3,2.8c0.5-1,1.2-1.8,2-2.3c0.8-0.6,1.7-0.8,2.8-0.8c0.3,0,0.6,0,0.9,0.1
			c0.3,0,0.5,0.1,0.7,0.1l-0.5,3.3l-2-0.1c-0.9,0-1.7,0.2-2.3,0.7c-0.6,0.4-1.1,1-1.5,1.8v11.1l2.9,0.5v2.3h-9.4v-2.3l2.9-0.5V80.6
			L264.6,80.1z"/>
		<path class="st7" d="M293.7,94.3c-0.6,1-1.4,1.8-2.4,2.4c-1,0.6-2.1,0.8-3.3,0.8c-2.1,0-3.7-0.7-4.9-2c-1.2-1.4-1.8-3.5-1.8-6.3
			v-8.7l-2.2-0.5v-2.3h2.2h3.5v11.5c0,2.1,0.3,3.5,0.9,4.3c0.6,0.8,1.6,1.2,2.9,1.2c1.3,0,2.3-0.3,3.1-0.8s1.4-1.2,1.9-2.2V80.6
			l-2.6-0.5v-2.3h2.6h3.5v16.6l2.2,0.5v2.3H294L293.7,94.3z"/>
		<path class="st7" d="M310.9,94.8c1.2,0,2.2-0.4,3.1-1.1c0.9-0.7,1.3-1.6,1.3-2.7h3.2l0,0.1c0.1,1.7-0.7,3.2-2.2,4.5
			c-1.5,1.3-3.4,1.9-5.4,1.9c-2.8,0-5-0.9-6.5-2.8c-1.5-1.8-2.2-4.2-2.2-6.9v-0.8c0-2.8,0.7-5.1,2.2-6.9c1.5-1.8,3.6-2.8,6.5-2.8
			c1.6,0,3,0.3,4.2,0.8c1.2,0.5,2.3,1.2,3.1,2.1l0.2,4.3h-2.8l-0.8-3c-0.4-0.4-1-0.7-1.6-1c-0.7-0.3-1.4-0.4-2.2-0.4
			c-1.9,0-3.2,0.7-4,2c-0.8,1.3-1.2,3-1.2,4.9v0.8c0,2,0.4,3.6,1.2,5C307.7,94.2,309,94.8,310.9,94.8z"/>
		<path class="st7" d="M328.3,73.1v4.7h3.7v2.6h-3.7v11.8c0,0.9,0.2,1.5,0.6,1.9c0.4,0.4,0.9,0.6,1.5,0.6c0.3,0,0.7,0,1-0.1
			c0.4-0.1,0.7-0.1,1-0.2l0.5,2.4c-0.3,0.2-0.8,0.4-1.5,0.5c-0.6,0.1-1.3,0.2-1.9,0.2c-1.4,0-2.6-0.4-3.4-1.3
			c-0.8-0.9-1.3-2.2-1.3-4.1V80.4h-3.1v-2.6h3.1v-4.7H328.3z"/>
		<path class="st7" d="M349.6,94.3c-0.6,1-1.4,1.8-2.4,2.4c-1,0.6-2.1,0.8-3.3,0.8c-2.1,0-3.7-0.7-4.9-2c-1.2-1.4-1.8-3.5-1.8-6.3
			v-8.7l-2.2-0.5v-2.3h2.2h3.5v11.5c0,2.1,0.3,3.5,0.9,4.3c0.6,0.8,1.6,1.2,2.9,1.2c1.3,0,2.3-0.3,3.1-0.8s1.4-1.2,1.9-2.2V80.6
			l-2.6-0.5v-2.3h2.6h3.5v16.6l2.2,0.5v2.3h-5.4L349.6,94.3z"/>
		<path class="st7" d="M357.7,80.1v-2.3h6.1l0.3,2.8c0.5-1,1.2-1.8,2-2.3c0.8-0.6,1.7-0.8,2.8-0.8c0.3,0,0.6,0,0.9,0.1
			c0.3,0,0.5,0.1,0.7,0.1l-0.5,3.3l-2-0.1c-0.9,0-1.7,0.2-2.3,0.7c-0.6,0.4-1.1,1-1.5,1.8v11.1l2.9,0.5v2.3h-9.4v-2.3l2.9-0.5V80.6
			L357.7,80.1z"/>
		<path class="st7" d="M381.3,97.6c-2.7,0-4.9-0.9-6.4-2.7c-1.6-1.8-2.4-4.1-2.4-7v-0.8c0-2.8,0.8-5.1,2.5-6.9
			c1.6-1.8,3.6-2.8,5.8-2.8c2.6,0,4.6,0.8,5.9,2.4c1.3,1.6,2,3.7,2,6.3v2.2h-12.6l-0.1,0.1c0,1.9,0.5,3.4,1.4,4.6
			c0.9,1.2,2.2,1.8,3.8,1.8c1.2,0,2.2-0.2,3.1-0.5c0.9-0.3,1.7-0.8,2.3-1.4l1.4,2.3c-0.7,0.7-1.6,1.2-2.8,1.7
			C384.3,97.3,382.9,97.6,381.3,97.6z M380.8,80.2c-1.2,0-2.2,0.5-3,1.5s-1.4,2.3-1.5,3.8l0,0.1h9v-0.5c0-1.4-0.4-2.5-1.1-3.5
			C383.4,80.7,382.3,80.2,380.8,80.2z"/>
		<path class="st7" d="M406.9,83.9h-2.7l-0.6-2.3c-0.4-0.4-1-0.7-1.6-1c-0.7-0.2-1.4-0.4-2.2-0.4c-1.3,0-2.2,0.3-2.8,0.8
			c-0.6,0.6-0.9,1.2-0.9,2c0,0.8,0.3,1.4,0.8,1.8c0.5,0.4,1.6,0.8,3.3,1.2c2.5,0.5,4.3,1.2,5.5,2.1c1.2,0.9,1.8,2.1,1.8,3.6
			c0,1.7-0.7,3.1-2.1,4.2c-1.4,1.1-3.2,1.6-5.5,1.6c-1.5,0-2.8-0.2-4-0.5c-1.2-0.3-2.2-0.8-3.1-1.5l0-4.4h2.7l0.7,2.6
			c0.4,0.4,1,0.6,1.7,0.8s1.4,0.3,2.1,0.3c1.3,0,2.2-0.3,3-0.8c0.7-0.5,1.1-1.2,1.1-2c0-0.8-0.3-1.4-0.9-1.9
			c-0.6-0.5-1.7-0.9-3.4-1.3c-2.4-0.5-4.1-1.2-5.3-2.1c-1.2-0.9-1.8-2.1-1.8-3.6c0-1.6,0.7-2.9,2-4c1.3-1.1,3.1-1.7,5.2-1.7
			c1.5,0,2.8,0.2,4,0.6c1.2,0.4,2.1,0.9,2.9,1.6L406.9,83.9z"/>
	</g>
	<g>
		<polygon class="st8" points="28.3,113.3 47.4,80.3 9.2,80.3 		"/>
		<polygon class="st9" points="176.4,8.2 157.3,41.2 195.5,41.2 		"/>
		<polygon class="st8" points="134.1,8.2 115,41.2 153.2,41.2 		"/>
		<polygon class="st10" points="155.3,40 174.3,7 136.2,7 		"/>
		<polygon class="st10" points="134.1,76.7 153.2,43.6 115,43.6 		"/>
		<polygon class="st8" points="155.3,44.8 136.2,77.9 174.3,77.9 		"/>
		<polygon class="st10" points="134.1,81.5 115,114.5 153.2,114.5 		"/>
		<polygon class="st9" points="155.3,113.3 174.3,80.3 136.2,80.3 		"/>
		<polygon class="st8" points="112.9,113.3 132,80.3 93.8,80.3 		"/>
		<polygon class="st10" points="91.8,8.2 72.7,41.2 110.9,41.2 		"/>
		<polygon class="st9" points="91.8,76.7 110.9,43.6 72.7,43.6 		"/>
		<polygon class="st8" points="70.6,44.8 51.5,77.9 89.7,77.9 		"/>
		<polygon class="st9" points="28.3,44.8 9.2,77.9 47.4,77.9 		"/>
		<polygon class="st10" points="49.5,81.5 30.4,114.5 68.6,114.5 		"/>
		<polygon class="st10" points="49.5,76.7 68.6,43.6 30.4,43.6 		"/>
		<polygon class="st9" points="70.6,113.3 89.7,80.3 51.5,80.3 		"/>
	</g>
	<g>
	</g>
	<g>
	</g>
	<g>
	</g>
	<g>
	</g>
	<g>
	</g>
	<g>
	</g>
</g>
</svg>
